<svg xmlns="http://www.w3.org/2000/svg" viewBox="0 0 860 620" role="img" aria-labelledby="title desc">
  <title id="title">QuietType mark</title>
  <desc id="desc">A speech bubble Q mark with a vertical audio waveform.</desc>
  <defs>
    <linearGradient id="ink" x1="210" y1="90" x2="660" y2="540" gradientUnits="userSpaceOnUse">
      <stop offset="0" stop-color="#334047"/>
      <stop offset="1" stop-color="#111415"/>
    </linearGradient>
  </defs>
  <path
    d="M420 82c-188 0-341 134-341 299s153 299 341 299c51 0 99-10 143-28l124 65c28 15 59-15 45-44l-61-120c56-51 89-111 89-172 0-165-153-299-340-299Z"
    fill="url(#ink)"/>
  <ellipse cx="420" cy="381" rx="247" ry="214" fill="#F7F7F5"/>
  <g fill="url(#ink)">
    <rect x="206" y="337" width="31" height="88" rx="15.5"/>
    <rect x="263" y="289" width="31" height="184" rx="15.5"/>
    <rect x="320" y="245" width="31" height="272" rx="15.5"/>
    <rect x="377" y="306" width="31" height="151" rx="15.5"/>
    <rect x="434" y="222" width="31" height="318" rx="15.5"/>
    <rect x="491" y="282" width="31" height="199" rx="15.5"/>
    <rect x="548" y="329" width="31" height="104" rx="15.5"/>
    <rect x="605" y="363" width="31" height="37" rx="15.5"/>
  </g>
</svg>
