<svg xmlns="http://www.w3.org/2000/svg" viewBox="0 0 1200 630" role="img" aria-labelledby="title desc">
  <title id="title">QuietType</title>
  <desc id="desc">QuietType native on-device dictation for Mac.</desc>
  <rect width="1200" height="630" fill="#F7F7F5"/>
  <defs>
    <linearGradient id="ink" x1="0" y1="-230" x2="320" y2="250" gradientUnits="userSpaceOnUse">
      <stop offset="0" stop-color="#334047"/>
      <stop offset="1" stop-color="#111415"/>
    </linearGradient>
    <filter id="mark-shadow" x="-30%" y="-30%" width="160%" height="160%">
      <feDropShadow dx="0" dy="14" stdDeviation="20" flood-color="#000000" flood-opacity="0.18"/>
    </filter>
  </defs>
  <g transform="translate(176 315) scale(.40)" filter="url(#mark-shadow)">
    <path d="M0-292c-188 0-341 134-341 299S-188 306 0 306c51 0 99-10 143-28l124 65c28 15 59-15 45-44l-61-120c56-51 89-111 89-172 0-165-153-299-340-299Z" fill="url(#ink)"/>
    <ellipse cx="0" cy="7" rx="247" ry="214" fill="#F7F7F5"/>
    <g fill="url(#ink)" transform="translate(-420 -374)">
      <rect x="206" y="337" width="31" height="88" rx="15.5"/>
      <rect x="263" y="289" width="31" height="184" rx="15.5"/>
      <rect x="320" y="245" width="31" height="272" rx="15.5"/>
      <rect x="377" y="306" width="31" height="151" rx="15.5"/>
      <rect x="434" y="222" width="31" height="318" rx="15.5"/>
      <rect x="491" y="282" width="31" height="199" rx="15.5"/>
      <rect x="548" y="329" width="31" height="104" rx="15.5"/>
      <rect x="605" y="363" width="31" height="37" rx="15.5"/>
    </g>
  </g>
  <text x="340" y="238" fill="#202020" font-family="-apple-system, BlinkMacSystemFont, SF Pro Display, Arial, sans-serif" font-size="92" font-weight="800">QuietType</text>
  <text x="344" y="324" fill="#202020" font-family="-apple-system, BlinkMacSystemFont, SF Pro Text, Arial, sans-serif" font-size="40" font-weight="650">Talk to your coding agents faster.</text>
  <text x="346" y="392" fill="#727272" font-family="-apple-system, BlinkMacSystemFont, SF Pro Text, Arial, sans-serif" font-size="30" font-weight="560">On-device dictation for Codex, Claude Code,</text>
  <text x="346" y="434" fill="#727272" font-family="-apple-system, BlinkMacSystemFont, SF Pro Text, Arial, sans-serif" font-size="30" font-weight="560">ChatGPT, Cursor and terminal workflows.</text>
  <line x1="344" y1="482" x2="986" y2="482" stroke="#DFDFDB" stroke-width="2"/>
  <text x="344" y="530" fill="#727272" font-family="-apple-system, BlinkMacSystemFont, SF Pro Text, Arial, sans-serif" font-size="24" font-weight="650">No cloud transcription · SAGE memory · Apple Silicon</text>
</svg>
