<svg xmlns="http://www.w3.org/2000/svg" viewBox="0 0 1200 630" role="img" aria-labelledby="title desc">
  <title id="title">QuietType</title>
  <desc id="desc">QuietType native on-device dictation for Mac.</desc>
  <rect width="1200" height="630" fill="#F7F7F5"/>
  <g transform="translate(164 315) scale(.34)">
    <rect x="-512" y="-512" width="1024" height="1024" rx="224" fill="#F7F7F5"/>
    <circle cx="0" cy="0" r="330" fill="#1F1F1F"/>
    <circle cx="126" cy="-52" r="300" fill="#F7F7F5"/>
    <rect x="-54" y="-170" width="108" height="244" rx="54" fill="#1F1F1F"/>
    <path d="M-146 4c0 81 65 146 146 146S146 85 146 4" fill="none" stroke="#1F1F1F" stroke-width="42" stroke-linecap="round"/>
    <path d="M0 150v104" fill="none" stroke="#1F1F1F" stroke-width="42" stroke-linecap="round"/>
    <path d="M-82 254h164" fill="none" stroke="#1F1F1F" stroke-width="42" stroke-linecap="round"/>
    <path d="M210-196v392" fill="none" stroke="#1F1F1F" stroke-width="36" stroke-linecap="round"/>
    <path d="M162-196h96M162 196h96" fill="none" stroke="#1F1F1F" stroke-width="36" stroke-linecap="round"/>
  </g>
  <text x="340" y="260" fill="#202020" font-family="-apple-system, BlinkMacSystemFont, SF Pro Display, Arial, sans-serif" font-size="92" font-weight="800">QuietType</text>
  <text x="344" y="346" fill="#202020" font-family="-apple-system, BlinkMacSystemFont, SF Pro Text, Arial, sans-serif" font-size="40" font-weight="650">Speak freely. Transcribe locally.</text>
  <text x="346" y="414" fill="#727272" font-family="-apple-system, BlinkMacSystemFont, SF Pro Text, Arial, sans-serif" font-size="30" font-weight="560">Native macOS dictation. No cloud processing.</text>
  <line x1="344" y1="482" x2="986" y2="482" stroke="#DFDFDB" stroke-width="2"/>
  <text x="344" y="530" fill="#727272" font-family="-apple-system, BlinkMacSystemFont, SF Pro Text, Arial, sans-serif" font-size="24" font-weight="650">Core ML ASR · SAGE memory · Local-first</text>
</svg>
